<?xml version="1.0" standalone="no"?>
<!DOCTYPE svg PUBLIC "-//W3C//DTD SVG 20010904//EN"
 "http://www.w3.org/TR/2001/REC-SVG-20010904/DTD/svg10.dtd">
<svg version="1.0" xmlns="http://www.w3.org/2000/svg"
 width="1024.000000pt" height="1024.000000pt" viewBox="0 0 1024.000000 1024.000000"
 preserveAspectRatio="xMidYMid meet">

<g transform="translate(0.000000,1024.000000) scale(0.100000,-0.100000)"
fill="#000000" stroke="none">
<path d="M0 5120 l0 -5120 5120 0 5120 0 0 5120 0 5120 -5120 0 -5120 0 0
-5120z m5278 3256 c31 -31 36 -42 40 -96 3 -34 -1 -72 -7 -88 -26 -61 -109
-88 -175 -57 -77 37 -104 118 -64 195 49 96 137 116 206 46z m-188 -433 c0
-43 3 -95 6 -115 l7 -38 -160 0 c-249 0 -307 -18 -461 -141 -63 -51 -100 -72
-141 -84 -238 -65 -534 -225 -747 -404 -205 -171 -407 -388 -519 -556 -226
-340 -364 -681 -437 -1085 -19 -108 -22 -160 -23 -380 0 -303 17 -426 95 -685
59 -195 95 -287 166 -427 209 -412 477 -713 909 -1019 172 -122 451 -233 799
-318 248 -60 301 -70 473 -80 155 -10 339 1 525 29 133 20 415 91 540 136 195
70 448 204 627 332 282 202 566 555 746 927 99 203 160 386 210 625 33 156 37
197 42 372 8 284 -10 455 -79 738 -150 619 -572 1206 -1123 1563 -138 89 -197
117 -410 196 -141 53 -196 78 -232 108 -135 111 -208 141 -383 154 -69 6 -145
7 -170 4 l-45 -6 3 113 c2 62 6 115 8 117 2 2 10 -1 18 -8 8 -6 81 -21 162
-32 504 -68 843 -172 1169 -357 504 -287 912 -756 1170 -1344 106 -242 201
-601 225 -855 14 -153 12 -425 -5 -584 -45 -430 -207 -881 -444 -1240 -115
-175 -143 -211 -285 -369 -325 -359 -728 -626 -1169 -774 -552 -185 -1074
-216 -1604 -95 -183 42 -342 96 -548 186 -280 122 -493 257 -730 461 -305 262
-488 499 -681 883 -102 203 -160 356 -210 558 -53 212 -70 323 -85 551 -22
336 32 724 152 1089 67 205 234 534 352 696 220 301 345 430 617 642 204 159
518 325 795 421 175 60 506 129 730 152 60 6 111 13 114 16 2 2 10 4 18 4 10
0 13 -20 13 -77z m604 -392 c51 -25 93 -58 160 -125 50 -50 104 -109 119 -132
36 -53 45 -126 53 -446 9 -316 14 -300 -153 -466 -133 -132 -193 -176 -262
-191 -70 -15 -479 -23 -696 -14 l-190 8 -60 37 c-121 73 -300 254 -311 314 -9
48 -10 674 -1 716 10 47 90 147 170 211 82 66 170 107 254 117 37 4 244 7 458
6 l390 -1 69 -34z m-1504 -239 c0 -20 -29 -41 -78 -57 -102 -33 -213 -139
-241 -229 -15 -49 -22 -277 -10 -320 6 -21 31 -60 55 -86 l44 -47 -73 -36
c-136 -68 -233 -175 -320 -353 l-52 -108 -8 -646 c-9 -781 -5 -1918 7 -1942
19 -40 -19 -14 -102 70 -91 91 -235 290 -331 457 -66 115 -182 409 -214 545
-96 396 -99 674 -11 1092 83 396 302 803 614 1142 91 99 271 256 340 296 36
21 92 62 125 90 33 29 101 72 150 96 95 45 105 49 105 36z m2160 -63 c59 -32
274 -195 409 -312 260 -225 495 -559 617 -879 83 -219 153 -520 176 -765 12
-126 0 -408 -22 -498 -5 -22 -19 -80 -30 -130 -12 -49 -42 -153 -67 -230 -65
-198 -231 -519 -339 -652 -19 -23 -32 -48 -29 -56 3 -7 -1 -20 -10 -27 -18
-15 -20 1 -2 19 10 10 9 11 -5 6 -10 -4 -34 -34 -55 -68 -20 -34 -56 -85 -80
-114 -24 -29 -43 -57 -43 -63 0 -6 -54 -65 -120 -133 -103 -105 -128 -125
-180 -145 -33 -13 -60 -28 -60 -33 0 -4 -6 -6 -14 -3 -13 5 24 58 235 344 63
84 124 198 149 275 16 47 16 59 2 460 -5 171 -8 614 -5 990 4 574 3 686 -9
721 -8 22 -41 85 -73 140 -76 127 -283 344 -376 394 l-60 32 65 60 c86 78 100
122 94 282 -6 125 -24 187 -83 272 -42 61 -87 93 -175 125 -63 22 -83 36 -74
50 5 9 93 -24 164 -62z m-2170 -389 c0 -171 -3 -230 -12 -230 -6 0 -31 9 -54
20 -62 30 -74 64 -74 202 0 62 3 123 6 136 7 24 99 102 122 102 9 0 12 -53 12
-230z m2113 161 c28 -28 29 -31 34 -169 l6 -141 -29 -29 c-25 -25 -98 -51
-110 -40 -8 9 -17 346 -10 391 l7 47 37 -16 c20 -8 50 -27 65 -43z m-2075
-621 c30 -54 129 -158 232 -245 101 -85 149 -117 213 -140 42 -16 51 -25 79
-79 20 -38 65 -94 118 -147 116 -117 157 -134 330 -134 120 0 128 1 191 31 43
21 93 57 142 103 76 73 106 119 116 179 5 30 12 36 59 52 86 30 134 63 261
181 l120 110 16 -38 c22 -51 78 -124 167 -213 40 -41 81 -86 89 -100 16 -24
18 -24 183 -28 l166 -4 -7 -67 c-5 -36 -8 -443 -8 -904 l0 -837 -45 -1 c-582
-12 -603 -14 -652 -37 -54 -27 -127 -101 -159 -163 -23 -44 -23 -45 -23 -491
l-1 -447 -800 2 -800 2 -67 26 c-100 39 -173 86 -250 161 -54 54 -78 87 -113
160 -79 163 -75 82 -75 1476 l0 1243 26 62 c77 183 259 326 419 327 48 0 51
-2 73 -40z m2115 -19 c23 -16 90 -77 150 -135 82 -82 107 -112 107 -132 0 -26
-1 -27 -47 -20 -66 9 -121 45 -194 127 -60 67 -63 74 -67 130 -2 32 -1 59 2
59 4 0 26 -13 49 -29z m-1113 -389 c121 2 220 1 220 -1 0 -2 -19 -29 -41 -59
-59 -78 -123 -106 -229 -100 -60 4 -87 10 -123 31 -51 30 -117 102 -117 128 0
15 5 16 35 8 19 -5 133 -8 255 -7z m1480 -2124 c0 -38 -19 -64 -175 -238 -66
-74 -148 -169 -182 -210 -86 -105 -299 -320 -317 -320 -3 0 -6 169 -6 375 l0
376 25 24 24 25 316 0 315 0 0 -32z"/>
<path d="M4755 7287 c-103 -41 -179 -110 -221 -201 -52 -114 -51 -293 2 -403
36 -74 112 -154 183 -192 l60 -32 403 3 403 3 52 29 c70 39 157 132 191 203
25 53 27 68 27 178 0 100 -4 129 -23 175 -42 106 -147 213 -232 239 -53 16
-804 14 -845 -2z m195 -252 c49 -25 98 -90 105 -138 14 -91 -82 -196 -178
-197 -69 0 -157 80 -171 155 -20 104 82 215 184 199 19 -3 46 -12 60 -19z
m621 -8 c98 -66 107 -186 19 -274 -41 -42 -96 -58 -150 -43 -118 32 -174 180
-105 278 44 61 171 83 236 39z"/>
<path d="M4225 5403 c-81 -3 -93 -7 -117 -30 -34 -33 -37 -79 -7 -117 32 -41
58 -46 182 -39 109 6 113 7 145 39 37 37 43 88 14 124 -21 26 -59 30 -217 23z"/>
<path d="M4656 5369 c-14 -17 -26 -36 -26 -43 0 -20 43 -80 66 -91 13 -7 289
-9 805 -8 l784 1 22 29 c33 41 30 75 -12 112 l-36 31 -788 0 -789 0 -26 -31z"/>
<path d="M4238 4831 c-95 -5 -109 -9 -132 -30 -38 -36 -36 -92 4 -133 l31 -31
132 8 c141 8 158 12 183 50 36 54 -15 147 -78 143 -18 -1 -81 -4 -140 -7z"/>
<path d="M4677 4819 c-26 -15 -49 -67 -41 -92 9 -29 34 -57 61 -68 12 -4 371
-9 799 -10 l778 -1 28 31 c38 42 36 75 -6 117 l-34 34 -783 0 c-514 -1 -790
-4 -802 -11z"/>
<path d="M4144 4236 c-90 -39 -81 -149 14 -176 20 -5 84 -10 141 -10 l103 0
34 34 c37 37 42 62 19 106 -27 52 -49 60 -170 60 -70 -1 -121 -6 -141 -14z"/>
<path d="M4695 4239 c-61 -36 -73 -103 -27 -148 l27 -28 480 -6 480 -5 33 31
c43 42 43 78 -2 123 l-34 34 -224 0 c-122 0 -333 3 -468 6 -180 4 -250 2 -265
-7z"/>
<path d="M4113 3644 c-37 -36 -41 -67 -17 -104 32 -48 41 -50 181 -50 132 0
134 0 159 27 32 35 40 68 23 100 -26 49 -51 56 -187 58 l-127 2 -32 -33z"/>
<path d="M4655 3644 c-48 -51 -26 -125 43 -144 23 -6 196 -10 449 -10 l411 0
26 31 c33 38 33 79 2 116 l-24 28 -441 3 -441 3 -25 -27z"/>
</g>
</svg>
